<svg xmlns="http://www.w3.org/2000/svg" width="214.526" height="237.984" viewBox="0 0 214.526 237.984">
  <g id="Group_2" data-name="Group 2" transform="translate(-369.812 -255.088)">
    <g id="Group_1" data-name="Group 1" transform="translate(288 190)">
      <path id="Path_34" data-name="Path 34" d="M178.109,92.28l5.232,9.063,17.183,29.766q1.511-.012,2.989-.012c1.913,0,3.834.012,5.752.045l-31.156-53.97L144.09,136.1c3.157-.56,6.368-1.076,9.61-1.543l19.173-33.21Z" fill="none"/>
      <path id="Path_35" data-name="Path 35" d="M217.011,171.75,205.25,151.377c-26.627,4.034-49.518,11.189-65.983,20.373Z" fill="none"/>
      <path id="Path_36" data-name="Path 36" d="M122.937,263.073a2.73,2.73,0,0,0-1.828.66,2.556,2.556,0,0,0-.772,2.054v14.172a2.556,2.556,0,0,0,.772,2.055,2.865,2.865,0,0,0,3.656,0,2.556,2.556,0,0,0,.773-2.055V265.787a2.557,2.557,0,0,0-.773-2.054A2.73,2.73,0,0,0,122.937,263.073Z" fill="none"/>
      <path id="Path_37" data-name="Path 37" d="M218.713,267.182l-1.885,9.725h3.845l-1.885-9.725Z" fill="none"/>
      <path id="Path_38" data-name="Path 38" d="M196.789,302.505a1.6,1.6,0,0,0,1.207.567,1.451,1.451,0,0,0,.732-.177,1.294,1.294,0,0,0,.47-.39,1.358,1.358,0,0,0,.316-.657,9.631,9.631,0,0,0,.08-1.555,9.858,9.858,0,0,0-.08-1.566,1.363,1.363,0,0,0-.316-.647,1.4,1.4,0,0,0-.47-.4,1.72,1.72,0,0,0-.732-.166,1.636,1.636,0,0,0-.716.166,1.5,1.5,0,0,0-.491.4,1.29,1.29,0,0,0-.305.647,9.293,9.293,0,0,0-.086,1.566,9.078,9.078,0,0,0,.086,1.555A1.289,1.289,0,0,0,196.789,302.505Z" fill="none"/>
      <path id="Path_39" data-name="Path 39" d="M192.366,264.392a2.147,2.147,0,0,0-.9-.979,3.585,3.585,0,0,0-1.735-.34h-2V272.2h1.847a3.916,3.916,0,0,0,1.809-.34,2.134,2.134,0,0,0,.942-.942,3.427,3.427,0,0,0,.358-1.395q.057-.828.057-1.846,0-.942-.038-1.791A3.878,3.878,0,0,0,192.366,264.392Z" fill="none"/>
      <path id="Path_40" data-name="Path 40" d="M274,298.572a1.038,1.038,0,0,0-.39-.882,1.358,1.358,0,0,0-.866-.24H270.9v2.362h1.785a1.286,1.286,0,0,0,.994-.385A1.2,1.2,0,0,0,274,298.572Z" fill="none"/>
      <path id="Path_41" data-name="Path 41" d="M100.525,298,99.4,301.4h2.277l-1.127-3.4Z" fill="none"/>
      <path id="Path_42" data-name="Path 42" d="M178.109,104.364,197.06,137.2q3.209-.06,6.453-.056,8.319,0,16.406.367l-41.81-72.418-45.942,79.575c7.979-1.82,16.442-3.343,25.291-4.531ZM144.09,136.1l34.019-58.924,31.156,53.97c-1.918-.033-3.839-.045-5.752-.045q-1.48,0-2.989.012l-17.183-29.766-5.232-9.063-5.236,9.063L153.7,134.553C150.458,135.02,147.247,135.536,144.09,136.1Z" fill="#262e3a"/>
      <path id="Path_43" data-name="Path 43" d="M149.933,245.8c-23.7-10.413-38.177-24.349-38.177-39.659a27.159,27.159,0,0,1,4.618-14.751H251.027L226.5,148.9c9.334-.775,19-1.183,28.9-1.183a343.46,343.46,0,0,1,38.489,2.124c-.706-.229-1.433-.446-2.151-.668.718.222,1.446.439,2.151.667.823.093,1.64.187,2.457.285q-3.239-.819-6.592-1.567h0a315.246,315.246,0,0,0-67.509-7.04c-.145,0-.292,0-.437,0q-8.364,0-16.477.386-2.7.128-5.372.3h0a297.6,297.6,0,0,0-47.542,6.687q-1.87.429-3.705.88a198.353,198.353,0,0,0-23.717,7.339c-26.606,10.212-43.171,24.6-43.171,40.532C81.812,218.092,109.122,235.995,149.933,245.8Zm55.317-94.422,11.761,20.373H139.267C155.732,162.566,178.623,155.411,205.25,151.377Z" fill="#f60"/>
      <text id="BrillTech" transform="translate(140 216)" fill="#707070" font-size="20" font-family="SegoeUI-Bold, Segoe UI" font-weight="700"><tspan x="0" y="0">BrillTech</tspan></text>
      <text id="Your_Potential" data-name="Your Potential" transform="translate(146 234)" fill="#707070" font-size="12" font-family="SegoeUI, Segoe UI"><tspan x="0" y="0">Your Potential</tspan></text>
    </g>
  </g>
</svg>
