<svg xmlns="http://www.w3.org/2000/svg" width="216.664" height="247.558" viewBox="0 0 216.664 247.558">
  <g id="client2" transform="translate(-396.93 -311.29)">
    <g id="Group_1" data-name="Group 1" transform="translate(-317 255)">
      <path id="Path_234" data-name="Path 234" d="M828.065,261.084a2.3,2.3,0,0,0-.97-1.051,3.849,3.849,0,0,0-1.86-.364h-2.144v9.786h1.982a4.227,4.227,0,0,0,1.941-.364,2.3,2.3,0,0,0,1.011-1.011,3.7,3.7,0,0,0,.384-1.5q.06-.888.061-1.981,0-1.01-.041-1.921A4.155,4.155,0,0,0,828.065,261.084Z" fill="none"/>
      <path id="Path_235" data-name="Path 235" d="M729.557,297.134h-.023l-1.21,3.652h2.442Z" fill="none"/>
      <path id="Path_236" data-name="Path 236" d="M832.81,301.973a1.714,1.714,0,0,0,1.3.607,1.57,1.57,0,0,0,.785-.188,1.4,1.4,0,0,0,.505-.419,1.469,1.469,0,0,0,.338-.7,10.323,10.323,0,0,0,.086-1.668,10.555,10.555,0,0,0-.086-1.68,1.466,1.466,0,0,0-.338-.694,1.515,1.515,0,0,0-.505-.43,1.828,1.828,0,0,0-.785-.177,1.734,1.734,0,0,0-.768.177,1.606,1.606,0,0,0-.528.43,1.392,1.392,0,0,0-.327.694,9.992,9.992,0,0,0-.092,1.68,9.772,9.772,0,0,0,.092,1.668A1.4,1.4,0,0,0,832.81,301.973Z" fill="none"/>
      <path id="Path_237" data-name="Path 237" d="M856.332,264.077l-2.022,10.433h4.125l-2.022-10.433Z" fill="none"/>
      <path id="Path_238" data-name="Path 238" d="M753.579,280.7a2.922,2.922,0,0,0,1.961-.707,2.744,2.744,0,0,0,.829-2.2V262.58a2.746,2.746,0,0,0-.829-2.2,3.073,3.073,0,0,0-3.922,0,2.743,2.743,0,0,0-.829,2.2v15.205a2.741,2.741,0,0,0,.829,2.2A2.92,2.92,0,0,0,753.579,280.7Z" fill="none"/>
      <path id="Path_239" data-name="Path 239" d="M915.3,298.671a1.292,1.292,0,0,0,.35-.918,1.11,1.11,0,0,0-.419-.945,1.454,1.454,0,0,0-.929-.258h-1.984v2.533h1.916A1.382,1.382,0,0,0,915.3,298.671Z" fill="none"/>
      <path id="Path_240" data-name="Path 240" d="M716.255,283.365a5.623,5.623,0,0,0,2.184,1.132,9.209,9.209,0,0,0,2.385.324,6.1,6.1,0,0,0,2.568-.546,6.727,6.727,0,0,0,2.083-1.476,7,7,0,0,0,1.4-2.123,6.41,6.41,0,0,0,.505-2.527V276.37h-4.124v1.415a3.6,3.6,0,0,1-.243,1.415,2.466,2.466,0,0,1-.607.89,2.593,2.593,0,0,1-.869.465,2.978,2.978,0,0,1-.87.141,2.15,2.15,0,0,1-1.961-.849,3.819,3.819,0,0,1-.546-2.1v-14.72a5.083,5.083,0,0,1,.506-2.406,2.1,2.1,0,0,1,2.042-.95,2.228,2.228,0,0,1,1.86.89,3.338,3.338,0,0,1,.688,2.1v1.375h4.124v-1.618a7.444,7.444,0,0,0-.505-2.77,6.768,6.768,0,0,0-1.4-2.2,6.258,6.258,0,0,0-4.732-1.9,7.149,7.149,0,0,0-2.729.505,6.4,6.4,0,0,0-2.123,1.4,6.2,6.2,0,0,0-1.375,2.1,7.025,7.025,0,0,0-.486,2.629v15.851a7.371,7.371,0,0,0,.627,3.256A6.263,6.263,0,0,0,716.255,283.365Z" fill="#262e3a"/>
      <path id="Path_241" data-name="Path 241" d="M748.888,283.042a6.473,6.473,0,0,0,2.2,1.334,7.172,7.172,0,0,0,4.974,0,6.927,6.927,0,0,0,2.244-1.334,6.418,6.418,0,0,0,1.577-2.144,7.275,7.275,0,0,0,.607-3.113V262.58a7.344,7.344,0,0,0-.607-3.073,6.762,6.762,0,0,0-1.577-2.224,7.262,7.262,0,0,0-7.218-1.294,6.842,6.842,0,0,0-2.2,1.294,6.483,6.483,0,0,0-1.617,2.224,7.344,7.344,0,0,0-.607,3.073v15.205a7.275,7.275,0,0,0,.607,3.113A6.166,6.166,0,0,0,748.888,283.042Zm1.9-20.462a2.743,2.743,0,0,1,.829-2.2,3.073,3.073,0,0,1,3.922,0,2.746,2.746,0,0,1,.829,2.2v15.205a2.744,2.744,0,0,1-.829,2.2,3.073,3.073,0,0,1-3.922,0,2.741,2.741,0,0,1-.829-2.2Z" fill="#262e3a"/>
      <path id="Path_242" data-name="Path 242" d="M789.649,271.032h-.081l-5.3-15.245h-3.963v28.792h4.125v-17.51h.081l4.044,12.374h2.063l4.084-12.374h.081v17.51h4.125V255.787h-4Z" fill="#262e3a"/>
      <path id="Path_243" data-name="Path 243" d="M830.492,257.809a5.754,5.754,0,0,0-2.346-1.578,9.213,9.213,0,0,0-2.992-.444h-6.187v28.792h4.124V273.337h2.1a7.621,7.621,0,0,0,3.721-.789,6.022,6.022,0,0,0,2.264-2.2,6.854,6.854,0,0,0,.951-2.507,20.527,20.527,0,0,0,.222-3.276,16.593,16.593,0,0,0-.4-4.1A6.152,6.152,0,0,0,830.492,257.809Zm-2.083,8.774a3.7,3.7,0,0,1-.384,1.5,2.3,2.3,0,0,1-1.011,1.011,4.227,4.227,0,0,1-1.941.364h-1.982v-9.786h2.144a3.849,3.849,0,0,1,1.86.364,2.3,2.3,0,0,1,.97,1.051,4.155,4.155,0,0,1,.364,1.6q.04.91.041,1.921Q828.47,265.694,828.409,266.583Z" fill="#262e3a"/>
      <path id="Path_244" data-name="Path 244" d="M854.673,255.787l-6.429,28.792h4.125l1.213-6.187H859.2l1.213,6.187h4.125l-6.43-28.792Zm-.363,18.722,2.022-10.432h.081l2.021,10.432Z" fill="#262e3a"/>
      <path id="Path_245" data-name="Path 245" d="M882.576,284.579H886.7V267.271h.081l6.309,17.308h3.882V255.787h-4.125v17.348h-.081l-6.227-17.348h-3.963Z" fill="#262e3a"/>
      <path id="Path_246" data-name="Path 246" d="M920.709,284.579h4.125V272.407l5.661-16.62h-4.367l-3.316,11.444h-.081l-3.316-11.444h-4.368l5.662,16.62Z" fill="#262e3a"/>
      <path id="Path_247" data-name="Path 247" d="M717.49,303.779V296.55h2.288V295.42H713.93v1.129h2.288v7.229Z" fill="#262e3a"/>
      <path id="Path_248" data-name="Path 248" d="M727.316,303.779l.642-1.869h3.17l.648,1.869h1.336l-3.039-8.359h-1.061l-3.038,8.359Zm2.218-6.645h.023l1.21,3.652h-2.442Z" fill="#262e3a"/>
      <path id="Path_249" data-name="Path 249" d="M740.753,301.984c.049.115.1.236.166.362a2.791,2.791,0,0,0,.974,1.02,2.976,2.976,0,0,0,4.627-2.488v-1.7h-2.97v1.2h1.7v.436a1.752,1.752,0,0,1-.493,1.267,1.613,1.613,0,0,1-1.221.5,1.494,1.494,0,0,1-.768-.188,1.478,1.478,0,0,1-.528-.419,1.39,1.39,0,0,1-.327-.7,9.763,9.763,0,0,1-.092-1.668,9.983,9.983,0,0,1,.092-1.68,1.384,1.384,0,0,1,.327-.694,1.6,1.6,0,0,1,.528-.43,1.737,1.737,0,0,1,.768-.177,1.656,1.656,0,0,1,1.032.349,1.841,1.841,0,0,1,.561.86h1.342a3.158,3.158,0,0,0-.963-1.76,2.834,2.834,0,0,0-1.972-.717,2.961,2.961,0,0,0-2.62,1.5,2.317,2.317,0,0,0-.281.8,22.015,22.015,0,0,0,0,3.888A2.29,2.29,0,0,0,740.753,301.984Z" fill="#262e3a"/>
      <path id="Path_250" data-name="Path 250" d="M755.044,295.42v8.358h5.337v-1.2h-4.07v-7.16Z" fill="#262e3a"/>
      <rect id="Rectangle_12" data-name="Rectangle 12" width="1.267" height="8.358" transform="translate(768.618 295.42)" fill="#262e3a"/>
      <path id="Path_251" data-name="Path 251" d="M778.69,295.42v8.358h1.267V297.84h.023l3.778,5.939h1.2V295.42h-1.267v5.939h-.023l-3.784-5.939Z" fill="#262e3a"/>
      <path id="Path_252" data-name="Path 252" d="M799.1,296.619v-1.2h-5.337v8.358H799.1v-1.2h-4.07v-2.454h3.474V299h-3.474v-2.385Z" fill="#262e3a"/>
      <path id="Path_253" data-name="Path 253" d="M817.281,296.853a2.317,2.317,0,0,0-.281.8,22.015,22.015,0,0,0,0,3.888,2.29,2.29,0,0,0,.115.446c.049.115.1.236.166.362a2.8,2.8,0,0,0,.975,1.02,2.976,2.976,0,0,0,4.626-2.488v-1.7h-2.969v1.2h1.7v.436a1.752,1.752,0,0,1-.493,1.267,1.613,1.613,0,0,1-1.221.5,1.709,1.709,0,0,1-1.3-.607,1.4,1.4,0,0,1-.327-.7,9.8,9.8,0,0,1-.091-1.668,10.018,10.018,0,0,1,.091-1.68,1.392,1.392,0,0,1,.327-.694,1.612,1.612,0,0,1,.527-.43,1.745,1.745,0,0,1,.769-.177,1.655,1.655,0,0,1,1.032.349,1.842,1.842,0,0,1,.562.86h1.341a3.158,3.158,0,0,0-.963-1.76,2.832,2.832,0,0,0-1.972-.717,2.964,2.964,0,0,0-2.62,1.5Z" fill="#262e3a"/>
      <path id="Path_254" data-name="Path 254" d="M831.486,296.853a2.316,2.316,0,0,0-.281.8,22.015,22.015,0,0,0,0,3.888,2.285,2.285,0,0,0,.115.446c.049.115.1.236.166.362a2.786,2.786,0,0,0,.975,1.02,2.937,2.937,0,0,0,1.645.482,2.993,2.993,0,0,0,1.663-.482,2.725,2.725,0,0,0,.951-1.02,1.953,1.953,0,0,0,.293-.808,25.58,25.58,0,0,0,0-3.888,1.938,1.938,0,0,0-.293-.8,2.81,2.81,0,0,0-.951-1.031,2.926,2.926,0,0,0-1.663-.471,2.964,2.964,0,0,0-2.62,1.5Zm1,1.067a1.392,1.392,0,0,1,.327-.694,1.606,1.606,0,0,1,.528-.43,1.734,1.734,0,0,1,.768-.177,1.828,1.828,0,0,1,.785.177,1.515,1.515,0,0,1,.505.43,1.466,1.466,0,0,1,.338.694,10.555,10.555,0,0,1,.086,1.68,10.323,10.323,0,0,1-.086,1.668,1.469,1.469,0,0,1-.338.7,1.4,1.4,0,0,1-.505.419,1.57,1.57,0,0,1-.785.188,1.714,1.714,0,0,1-1.3-.607,1.4,1.4,0,0,1-.327-.7,9.772,9.772,0,0,1-.092-1.668A9.992,9.992,0,0,1,832.483,297.92Z" fill="#262e3a"/>
      <path id="Path_255" data-name="Path 255" d="M845.611,303.779h5.337v-1.2h-4.07v-2.454h3.474V299h-3.474v-2.385h4.07v-1.2h-5.337Z" fill="#262e3a"/>
      <path id="Path_256" data-name="Path 256" d="M861.662,302.58a3.665,3.665,0,0,1-2.374-.831l-.831.952a4.74,4.74,0,0,0,3.194,1.147q2.872-.034,2.935-2.431a2.373,2.373,0,0,0-.556-1.56,2.609,2.609,0,0,0-1.737-.842c-.4-.05-.711-.094-.941-.132a1.607,1.607,0,0,1-.9-.413.922.922,0,0,1-.281-.654,1.086,1.086,0,0,1,.419-.9,1.577,1.577,0,0,1,.975-.292,3.825,3.825,0,0,1,2.069.642l.706-1.044a4.7,4.7,0,0,0-2.712-.866,2.842,2.842,0,0,0-2,.677,2.285,2.285,0,0,0-.728,1.766,2.22,2.22,0,0,0,.579,1.548,2.738,2.738,0,0,0,1.639.8c.4.057.77.108,1.107.154q1.1.189,1.089,1.124Q863.29,302.559,861.662,302.58Z" fill="#262e3a"/>
      <path id="Path_257" data-name="Path 257" d="M882.826,295.42v8.358h1.267v-3.652H887.4v3.652h1.267V295.42H887.4V299h-3.309V295.42Z" fill="#262e3a"/>
      <path id="Path_258" data-name="Path 258" d="M902.816,302.581h-4.07v-2.454h3.474V299h-3.474v-2.385h4.07v-1.2h-5.337v8.358h5.337Z" fill="#262e3a"/>
      <path id="Path_259" data-name="Path 259" d="M912.319,300.207h1.617l1.726,3.572h1.508l-1.938-3.709a2.325,2.325,0,0,0,1.616-2.317,2.221,2.221,0,0,0-.831-1.782,2.56,2.56,0,0,0-1.7-.551h-3.263v8.359h1.267Zm0-3.657H914.3a1.454,1.454,0,0,1,.929.258,1.11,1.11,0,0,1,.419.945,1.292,1.292,0,0,1-.35.918,1.382,1.382,0,0,1-1.066.412h-1.916Z" fill="#262e3a"/>
      <path id="Path_260" data-name="Path 260" d="M930.595,296.619v-1.2h-5.337v8.358h5.337v-1.2h-4.07v-2.454H930V299h-3.474v-2.385Z" fill="#262e3a"/>
      <path id="Path_261" data-name="Path 261" d="M857.836,153.87v27.99h-70.67a28.252,28.252,0,0,1-5.4-.51c-.25-.05-.5-.11-.75-.16a28.744,28.744,0,0,1-22.56-28.02V56.29a46.168,46.168,0,0,1,23.31,40.03v45.84a16.409,16.409,0,0,0,16.4,16.4h48.2A16.346,16.346,0,0,0,857.836,153.87Z" fill="#262e3a"/>
      <path id="Path_262" data-name="Path 262" d="M886.066,56.29v54.08A34.547,34.547,0,0,0,863.9,95.76c-.37-.07-.741-.14-1.12-.19A46.152,46.152,0,0,1,886.066,56.29Z" fill="#262e3a"/>
      <path id="Path_263" data-name="Path 263" d="M886.066,129.85v96.86a46.177,46.177,0,0,1-23.3-40.03V140.84a16.423,16.423,0,0,0-16.4-16.4h-48.2a16.347,16.347,0,0,0-11.471,4.69V101.14h70.67a28.261,28.261,0,0,1,5.4.51A28.75,28.75,0,0,1,886.066,129.85Z" fill="#f60"/>
      <path id="Path_264" data-name="Path 264" d="M781.756,187.43a46.143,46.143,0,0,1-23.3,39.28v-54.1a34.686,34.686,0,0,0,8.3,8.59,34.311,34.311,0,0,0,12.97,5.85l.159.04c.25.05.5.1.741.15C781,187.31,781.376,187.38,781.756,187.43Z" fill="#f60"/>
    </g>
  </g>
</svg>
