<svg xmlns="http://www.w3.org/2000/svg" width="177.494" height="177.581" viewBox="0 0 177.494 177.581">
  <g id="client5" transform="translate(-416.922 -60.892)">
    <path id="Path_65" data-name="Path 65" d="M476.625,219.785A23.369,23.369,0,0,0,471.715,194l-37.738-37.743c6.687,20.547,17.13,38.008,31.1,51.977Z" fill="none"/>
    <path id="Path_66" data-name="Path 66" d="M539.622,105.369l37.739,37.738c-6.688-20.547-17.13-38-31.1-51.977L534.712,79.581A23.378,23.378,0,0,0,539.622,105.369Z" fill="none"/>
    <path id="Path_67" data-name="Path 67" d="M461.226,115.69l37.742-37.742c-20.546,6.691-38.007,17.13-51.976,31.1l-11.558,11.557a23.382,23.382,0,0,0,25.792-4.918Z" fill="none"/>
    <path id="Path_68" data-name="Path 68" d="M550.111,183.675l-37.742,37.742c20.547-6.687,38.007-17.129,51.976-31.1L575.9,178.757a23.382,23.382,0,0,0-25.792,4.918Z" fill="none"/>
    <path id="Path_69" data-name="Path 69" d="M467.289,121.754l60.857-60.862L503.96,67.513c-25.168,6.885-46.377,18.82-63.032,35.475l-18.761,18.766a31.909,31.909,0,0,0,45.122,0Zm-20.3-12.7c13.969-13.973,31.43-24.412,51.976-31.1L461.226,115.69a23.382,23.382,0,0,1-25.792,4.918Z" fill="#f60"/>
    <path id="Path_70" data-name="Path 70" d="M459.017,214.3l18.762,18.762a31.91,31.91,0,0,0,0-45.123L416.922,127.08l6.616,24.187C430.423,176.434,442.362,197.644,459.017,214.3Zm12.7-20.3a23.369,23.369,0,0,1,4.91,25.784l-11.549-11.55c-13.969-13.969-24.412-31.43-31.1-51.977Z" fill="#262e3a"/>
    <path id="Path_71" data-name="Path 71" d="M566.61,168.267a31.816,31.816,0,0,0-22.562,9.348l-60.857,60.858,24.186-6.617c25.169-6.885,46.378-18.824,63.032-35.478l18.762-18.763a31.818,31.818,0,0,0-22.561-9.348Zm-2.265,22.047c-13.969,13.974-31.429,24.416-51.976,31.1l37.742-37.742a23.382,23.382,0,0,1,25.792-4.918Z" fill="#f60"/>
    <path id="Path_72" data-name="Path 72" d="M533.559,111.428l60.857,60.857L587.8,148.1c-6.885-25.168-18.824-46.377-35.478-63.032L533.559,66.305A31.9,31.9,0,0,0,533.559,111.428Zm1.153-31.847L546.261,91.13c13.97,13.973,24.412,31.43,31.1,51.977l-37.739-37.738A23.378,23.378,0,0,1,534.712,79.581Z" fill="#262e3a"/>
  </g>
</svg>
