<svg xmlns="http://www.w3.org/2000/svg" width="239.34" height="246.26" viewBox="0 0 239.34 246.26">
  <g id="client3" transform="translate(-69.405 -697.45)">
    <path id="Path_1" data-name="Path 1" d="M86.642,936.294l-1.336,4.034H88l-1.336-4.034Z" fill="none"/>
    <path id="Path_2" data-name="Path 2" d="M292.237,936.978a1.229,1.229,0,0,0-.462-1.045,1.607,1.607,0,0,0-1.026-.285h-2.192v2.8h2.116a1.529,1.529,0,0,0,1.178-.456A1.426,1.426,0,0,0,292.237,936.978Z" fill="none"/>
    <path id="Path_3" data-name="Path 3" d="M116.56,907.643a6.541,6.541,0,1,0,6.526,6.527A6.546,6.546,0,0,0,116.56,907.643Z" fill="none"/>
    <path id="Path_4" data-name="Path 4" d="M194.178,907.643h-1.755v4.342h1.755a2.171,2.171,0,1,0,0-4.342Z" fill="none"/>
    <path id="Path_5" data-name="Path 5" d="M152.719,820.73h39.524l-58.223-64.106H94.5Z" fill="none"/>
    <path id="Path_6" data-name="Path 6" d="M225.428,756.344H185.907l58.221,64.106h39.526Z" fill="none"/>
    <path id="Path_7" data-name="Path 7" d="M225.512,914.6h3.536l-1.782-4.916Z" fill="none"/>
    <path id="Path_8" data-name="Path 8" d="M203.583,936.4a1.678,1.678,0,0,0-.557-.475,2.04,2.04,0,0,0-.868-.2,1.936,1.936,0,0,0-.849.2,1.792,1.792,0,0,0-.583.475,1.534,1.534,0,0,0-.361.767,11.086,11.086,0,0,0-.1,1.855,10.846,10.846,0,0,0,.1,1.843,1.543,1.543,0,0,0,.361.779,1.654,1.654,0,0,0,.583.462,1.637,1.637,0,0,0,.849.209,1.721,1.721,0,0,0,.868-.209,1.55,1.55,0,0,0,.557-.462,1.633,1.633,0,0,0,.374-.779,11.562,11.562,0,0,0,.094-1.843,11.817,11.817,0,0,0-.094-1.855A1.626,1.626,0,0,0,203.583,936.4Z" fill="none"/>
    <path id="Path_9" data-name="Path 9" d="M137.526,748.71h-60.9l72.589,79.93h60.9ZM94.5,756.62h39.53l58.22,64.11H152.715Z" fill="#f60"/>
    <path id="Path_10" data-name="Path 10" d="M198.806,697.45l-61.28,48.18h-60.9l13.41-10.54A176,176,0,0,1,198.806,697.45Z" fill="#262e3a"/>
    <path id="Path_11" data-name="Path 11" d="M228.936,748.43h-60.9l72.59,79.93h60.9ZM185.9,756.34h39.52l58.23,64.11H244.126Z" fill="#f60"/>
    <path id="Path_12" data-name="Path 12" d="M301.526,831.44l-13.411,10.54a176.034,176.034,0,0,1-108.77,37.64l61.281-48.18Z" fill="#262e3a"/>
    <path id="Path_13" data-name="Path 13" d="M84.764,918.971a6.536,6.536,0,1,1-4.426-11.328,6.438,6.438,0,0,1,4.426,1.754l3.076-3.1a10.9,10.9,0,1,0,0,15.755Z" fill="#f60"/>
    <path id="Path_14" data-name="Path 14" d="M116.56,903.274a10.9,10.9,0,1,0,10.9,10.9A10.907,10.907,0,0,0,116.56,903.274Zm0,17.451a6.541,6.541,0,1,1,6.526-6.555A6.552,6.552,0,0,1,116.56,920.725Z" fill="#f60"/>
    <path id="Path_15" data-name="Path 15" d="M157.783,919.2,151.4,903.274h-4.686v21.792h4.341v-10.9l4.37,10.9h4.686l4.37-10.9v10.9h4.341V903.274h-4.687Z" fill="#f60"/>
    <path id="Path_16" data-name="Path 16" d="M194.178,903.274h-6.1v21.791h4.34v-8.711h1.783a6.54,6.54,0,0,0-.028-13.08Zm0,8.711h-1.755v-4.342h1.755a2.171,2.171,0,1,1,0,4.342Z" fill="#f60"/>
    <path id="Path_17" data-name="Path 17" d="M224.966,903.274l-7.877,21.791h4.628l2.214-6.094h6.7l2.213,6.094h4.629L229.6,903.274Zm.546,11.327,1.754-4.916,1.782,4.916Z" fill="#f60"/>
    <path id="Path_18" data-name="Path 18" d="M274.3,903.274h-4.341v14.547l-8.711-14.547h-5.088v21.792H260.5V910.547l8.74,14.518h5.06Z" fill="#f60"/>
    <path id="Path_19" data-name="Path 19" d="M303.016,925.065V914.688l5.692-11.414H303.85l-2.99,6.037-3.018-6.037h-4.859l5.692,11.414v10.378Z" fill="#f60"/>
    <path id="Path_20" data-name="Path 20" d="M69.4,935.648h2.526v7.986h1.406v-7.986h2.527V934.4H69.4Z" fill="#f60"/>
    <path id="Path_21" data-name="Path 21" d="M86.066,934.4l-3.357,9.234h1.482l.709-2.065h3.5l.716,2.065h1.476L87.237,934.4Zm-.761,5.928,1.337-4.034h.026L88,940.328Z" fill="#f60"/>
    <path id="Path_22" data-name="Path 22" d="M102.125,939.872h1.881v.481a1.936,1.936,0,0,1-.545,1.4,1.786,1.786,0,0,1-1.349.557,1.637,1.637,0,0,1-.849-.209,1.654,1.654,0,0,1-.583-.462,1.551,1.551,0,0,1-.361-.779,10.846,10.846,0,0,1-.1-1.843,11.086,11.086,0,0,1,.1-1.855,1.542,1.542,0,0,1,.361-.767,1.792,1.792,0,0,1,.583-.475,1.936,1.936,0,0,1,.849-.2,1.825,1.825,0,0,1,1.14.386,2.045,2.045,0,0,1,.621.95h1.482a3.491,3.491,0,0,0-1.064-1.944,3.134,3.134,0,0,0-2.179-.792,3.277,3.277,0,0,0-2.895,1.659,2.573,2.573,0,0,0-.309.881,24.056,24.056,0,0,0,0,4.294,2.577,2.577,0,0,0,.126.493c.055.127.116.26.183.4a3.109,3.109,0,0,0,1.078,1.127,3.288,3.288,0,0,0,5.11-2.749v-1.881h-3.28Z" fill="#f60"/>
    <path id="Path_23" data-name="Path 23" d="M116.22,934.4h-1.4v9.233h5.9V942.31h-4.5Z" fill="#f60"/>
    <rect id="Rectangle_2" data-name="Rectangle 2" width="1.4" height="9.233" transform="translate(129.816 934.4)" fill="#f60"/>
    <path id="Path_24" data-name="Path 24" d="M146.465,940.961h-.025l-4.18-6.561h-1.317v9.233h1.4v-6.561h.025l4.173,6.561h1.324V934.4h-1.4Z" fill="#f60"/>
    <path id="Path_25" data-name="Path 25" d="M157.6,943.634h5.9V942.31H159V939.6h3.838v-1.241H159v-2.634h4.5V934.4h-5.9Z" fill="#f60"/>
    <path id="Path_26" data-name="Path 26" d="M186.479,939.872h1.881v.481a1.936,1.936,0,0,1-.545,1.4,1.785,1.785,0,0,1-1.349.557,1.9,1.9,0,0,1-1.431-.671,1.535,1.535,0,0,1-.361-.779,10.707,10.707,0,0,1-.1-1.843,10.943,10.943,0,0,1,.1-1.855,1.526,1.526,0,0,1,.361-.767,1.771,1.771,0,0,1,.583-.475,1.928,1.928,0,0,1,.848-.2,1.825,1.825,0,0,1,1.14.386,2.029,2.029,0,0,1,.621.95h1.482a3.491,3.491,0,0,0-1.064-1.944,3.134,3.134,0,0,0-2.179-.792,3.274,3.274,0,0,0-2.894,1.659,2.552,2.552,0,0,0-.31.881,24.312,24.312,0,0,0,0,4.294,2.576,2.576,0,0,0,.126.493c.055.127.116.26.184.4a3.106,3.106,0,0,0,1.077,1.127,3.287,3.287,0,0,0,5.11-2.749v-1.881h-3.28Z" fill="#f60"/>
    <path id="Path_27" data-name="Path 27" d="M205.046,935.983a3.111,3.111,0,0,0-1.051-1.139,3.232,3.232,0,0,0-1.837-.52,3.274,3.274,0,0,0-2.9,1.659,2.573,2.573,0,0,0-.309.881,24.058,24.058,0,0,0,0,4.294,2.5,2.5,0,0,0,.126.493c.055.127.116.26.183.4a3.106,3.106,0,0,0,1.077,1.127,3.247,3.247,0,0,0,1.818.532,3.3,3.3,0,0,0,1.837-.532,3.029,3.029,0,0,0,1.051-1.127,2.155,2.155,0,0,0,.323-.893,28.148,28.148,0,0,0,0-4.294A2.14,2.14,0,0,0,205.046,935.983Zm-1.089,4.877a1.633,1.633,0,0,1-.374.779,1.55,1.55,0,0,1-.557.462,1.721,1.721,0,0,1-.868.209,1.637,1.637,0,0,1-.849-.209,1.654,1.654,0,0,1-.583-.462,1.543,1.543,0,0,1-.361-.779,10.846,10.846,0,0,1-.1-1.843,11.086,11.086,0,0,1,.1-1.855,1.534,1.534,0,0,1,.361-.767,1.792,1.792,0,0,1,.583-.475,1.936,1.936,0,0,1,.849-.2,2.04,2.04,0,0,1,.868.2,1.678,1.678,0,0,1,.557.475,1.626,1.626,0,0,1,.374.767,11.817,11.817,0,0,1,.094,1.855A11.562,11.562,0,0,1,203.957,940.86Z" fill="#f60"/>
    <path id="Path_28" data-name="Path 28" d="M214.867,943.634h5.9V942.31h-4.5V939.6H220.1v-1.241h-3.837v-2.634h4.5V934.4h-5.9Z" fill="#f60"/>
    <path id="Path_29" data-name="Path 29" d="M233.295,938.371c-.439-.055-.786-.1-1.039-.146a1.776,1.776,0,0,1-.995-.456,1.021,1.021,0,0,1-.31-.722,1.2,1.2,0,0,1,.463-1,1.745,1.745,0,0,1,1.076-.323,4.237,4.237,0,0,1,2.287.709l.778-1.152a5.185,5.185,0,0,0-2.995-.957,3.141,3.141,0,0,0-2.21.748,2.525,2.525,0,0,0-.8,1.95,2.45,2.45,0,0,0,.639,1.71,3.021,3.021,0,0,0,1.811.88c.444.064.851.12,1.223.171q1.215.21,1.2,1.241-.025,1.262-1.824,1.286a4.053,4.053,0,0,1-2.622-.918l-.918,1.051a5.234,5.234,0,0,0,3.528,1.267q3.173-.039,3.242-2.686a2.62,2.62,0,0,0-.614-1.722A2.88,2.88,0,0,0,233.295,938.371Z" fill="#f60"/>
    <path id="Path_30" data-name="Path 30" d="M261.031,938.358h-3.655V934.4h-1.4v9.233h1.4V939.6h3.655v4.034h1.4V934.4h-1.4Z" fill="#f60"/>
    <path id="Path_31" data-name="Path 31" d="M272.163,943.634h5.9V942.31h-4.5V939.6H277.4v-1.241h-3.838v-2.634h4.5V934.4h-5.9Z" fill="#f60"/>
    <path id="Path_32" data-name="Path 32" d="M293.56,936.978a2.456,2.456,0,0,0-.918-1.97,2.838,2.838,0,0,0-1.881-.608h-3.6v9.234h1.4v-3.946h1.786l1.906,3.946h1.666l-2.14-4.1A2.568,2.568,0,0,0,293.56,936.978Zm-5,1.469v-2.8h2.192a1.607,1.607,0,0,1,1.026.285,1.229,1.229,0,0,1,.462,1.045,1.426,1.426,0,0,1-.386,1.013,1.529,1.529,0,0,1-1.178.456Z" fill="#f60"/>
    <path id="Path_33" data-name="Path 33" d="M302.849,943.634h5.9V942.31h-4.5V939.6h3.837v-1.241h-3.837v-2.634h4.5V934.4h-5.9Z" fill="#f60"/>
  </g>
</svg>
