<svg xmlns="http://www.w3.org/2000/svg" width="192.891" height="255.203" viewBox="0 0 192.891 255.203">
  <g id="Group_1" data-name="Group 1" transform="translate(-409.223 -375.024)">
    <path id="Path_300" data-name="Path 300" d="M453.361,598.7a6.287,6.287,0,0,0-2.4-2.765,6.814,6.814,0,0,0-3.586-.973,6.9,6.9,0,0,0-4.832,1.884c-1.337,1.246-2.036,3.4-2.036,6.352a7.94,7.94,0,0,0,1.945,5.621,6.6,6.6,0,0,0,4.892,2.036,6.488,6.488,0,0,0,4.923-2.066,8.31,8.31,0,0,0,1.915-5.865A10.07,10.07,0,0,0,453.361,598.7Z" fill="none"/>
    <path id="Path_301" data-name="Path 301" d="M515.106,628.559a1.524,1.524,0,0,0,1.153.541,1.391,1.391,0,0,0,.7-.168,1.254,1.254,0,0,0,.449-.373,1.316,1.316,0,0,0,.3-.627,9.291,9.291,0,0,0,.076-1.485,9.48,9.48,0,0,0-.076-1.494,1.31,1.31,0,0,0-.3-.618,1.339,1.339,0,0,0-.449-.382,1.637,1.637,0,0,0-.7-.159,1.561,1.561,0,0,0-.684.159,1.417,1.417,0,0,0-.469.382,1.238,1.238,0,0,0-.291.618,8.936,8.936,0,0,0-.081,1.494,8.758,8.758,0,0,0,.081,1.485A1.245,1.245,0,0,0,515.106,628.559Z" fill="none"/>
    <rect id="Rectangle_14" data-name="Rectangle 14" width="35.932" height="35.932" transform="translate(428.849 471.419) rotate(-45.001)" fill="none"/>
    <path id="Path_302" data-name="Path 302" d="M423.212,624.254l-1.077,3.249h2.173l-1.076-3.249Z" fill="none"/>
    <path id="Path_303" data-name="Path 303" d="M587.618,623.733h-1.765v2.255h1.7a1.23,1.23,0,0,0,.949-.367,1.149,1.149,0,0,0,.311-.816.987.987,0,0,0-.373-.842A1.29,1.29,0,0,0,587.618,623.733Z" fill="none"/>
    <rect id="Rectangle_15" data-name="Rectangle 15" width="35.933" height="35.933" transform="translate(480.209 420.059) rotate(-45)" fill="none"/>
    <rect id="Rectangle_16" data-name="Rectangle 16" width="35.932" height="35.932" transform="translate(480.209 522.778) rotate(-45.001)" fill="none"/>
    <rect id="Rectangle_17" data-name="Rectangle 17" width="35.932" height="35.932" transform="translate(531.568 471.419) rotate(-45.001)" fill="none"/>
    <rect id="Rectangle_18" data-name="Rectangle 18" width="35.932" height="13.878" transform="translate(521.756 461.605) rotate(-45.001)" fill="#f60"/>
    <rect id="Rectangle_19" data-name="Rectangle 19" width="35.932" height="13.878" transform="translate(470.396 512.965) rotate(-44.999)" fill="#f60"/>
    <rect id="Rectangle_20" data-name="Rectangle 20" width="35.932" height="13.877" transform="translate(505.617 445.467) rotate(-45.001)" fill="#f60"/>
    <rect id="Rectangle_21" data-name="Rectangle 21" width="35.932" height="13.878" transform="translate(454.257 496.826) rotate(-45)" fill="#f60"/>
    <rect id="Rectangle_22" data-name="Rectangle 22" width="13.878" height="35.933" transform="translate(454.257 446.01) rotate(-45)" fill="#f60"/>
    <rect id="Rectangle_23" data-name="Rectangle 23" width="13.878" height="35.933" transform="translate(470.396 429.871) rotate(-45)" fill="#f60"/>
    <rect id="Rectangle_24" data-name="Rectangle 24" width="13.878" height="35.932" transform="translate(521.756 481.231) rotate(-45)" fill="#f60"/>
    <rect id="Rectangle_25" data-name="Rectangle 25" width="13.878" height="35.932" transform="translate(505.617 497.37) rotate(-45)" fill="#f60"/>
    <path id="Path_304" data-name="Path 304" d="M540.838,532.591l-9.812-9.813-25.408,25.408-25.408-25.408-9.813,9.813,35.221,35.221Z" fill="#262e3a"/>
    <path id="Path_305" data-name="Path 305" d="M454.257,446.01l-9.813-9.813-35.221,35.221,35.221,35.221,9.813-9.813-25.408-25.408Z" fill="#262e3a"/>
    <path id="Path_306" data-name="Path 306" d="M566.789,436.2l-9.813,9.813,25.408,25.408-25.408,25.408,9.813,9.813,35.221-35.221Z" fill="#262e3a"/>
    <path id="Path_307" data-name="Path 307" d="M531.025,420.059l9.813-9.813-35.221-35.221L470.4,410.246l9.813,9.813,25.408-25.408Z" fill="#262e3a"/>
    <path id="Path_308" data-name="Path 308" d="M424.7,611.74a9.034,9.034,0,0,0,3.13-5.106l.061-.182-3.069-.76-.061.183a6.614,6.614,0,0,1-2.067,3.738,5.862,5.862,0,0,1-3.768,1.245,6.719,6.719,0,0,1-3.4-.911,5.4,5.4,0,0,1-2.28-2.8,12.392,12.392,0,0,1-.121-8.205,5.957,5.957,0,0,1,2.157-2.917,6.788,6.788,0,0,1,3.86-1.064,5.286,5.286,0,0,1,3.312.973,5.878,5.878,0,0,1,2.006,3.1l.061.152,3.038-.7-.06-.182a8.429,8.429,0,0,0-3.009-4.437,8.783,8.783,0,0,0-5.287-1.55,10.686,10.686,0,0,0-5.075,1.216,8.752,8.752,0,0,0-3.556,3.647,12,12,0,0,0-1.246,5.561,13.643,13.643,0,0,0,1.094,5.47,8.344,8.344,0,0,0,3.252,3.92,9.971,9.971,0,0,0,5.5,1.367A8.917,8.917,0,0,0,424.7,611.74Z" fill="#262e3a"/>
    <path id="Path_309" data-name="Path 309" d="M456.1,608.488a11.815,11.815,0,0,0,1.277-5.561,12.269,12.269,0,0,0-1.216-5.47,9.13,9.13,0,0,0-3.555-3.8,10.165,10.165,0,0,0-5.227-1.367,9.662,9.662,0,0,0-7.233,2.887,12.216,12.216,0,0,0-1.58,13.1,9.1,9.1,0,0,0,3.525,3.829,9.934,9.934,0,0,0,5.257,1.4,10.4,10.4,0,0,0,5.075-1.276A8.727,8.727,0,0,0,456.1,608.488Zm-8.752,2.37a6.6,6.6,0,0,1-4.892-2.036,7.94,7.94,0,0,1-1.945-5.621c0-2.948.7-5.106,2.036-6.352a6.9,6.9,0,0,1,4.832-1.884,6.814,6.814,0,0,1,3.586.973,6.287,6.287,0,0,1,2.4,2.765,10.07,10.07,0,0,1,.821,4.224,8.31,8.31,0,0,1-1.915,5.865A6.488,6.488,0,0,1,447.344,610.858Z" fill="#262e3a"/>
    <rect id="Rectangle_26" data-name="Rectangle 26" width="2.948" height="20.513" transform="translate(485.027 592.99)" fill="#262e3a"/>
    <path id="Path_310" data-name="Path 310" d="M479.314,613.5l4.619-13.037v-7.293l-4.892,13.949c-.395,1.124-.7,2.005-.912,2.7l-.821-2.431-4.892-14.4h-.335v7.445l4.528,13.067Z" fill="#262e3a"/>
    <rect id="Rectangle_27" data-name="Rectangle 27" width="2.978" height="20.513" transform="translate(468.009 592.99)" fill="#262e3a"/>
    <path id="Path_311" data-name="Path 311" d="M512.924,603.474a6.6,6.6,0,0,0,1.094-7.293,5.1,5.1,0,0,0-1.732-2.006,6.1,6.1,0,0,0-2.583-.972,16.847,16.847,0,0,0-3.16-.213h-3.768v2.735h3.981a11.268,11.268,0,0,1,2.492.182,2.764,2.764,0,0,1,1.61,1.125,3.329,3.329,0,0,1,.608,2.066,3.2,3.2,0,0,1-1.033,2.553,5.575,5.575,0,0,1-3.617.912h-4.041v2.765h4.011C509.7,605.328,511.8,604.689,512.924,603.474Z" fill="#262e3a"/>
    <rect id="Rectangle_28" data-name="Rectangle 28" width="3.069" height="20.513" transform="translate(498.612 592.99)" fill="#262e3a"/>
    <path id="Path_312" data-name="Path 312" d="M536.476,592.99h-3.16L525.293,613.5h3.252l.911-2.4h-.03l2.31-6.229.486-1.276,1.7-4.529h.031a28.417,28.417,0,0,0,.911-3.038c.3.972.73,2.157,1.246,3.494l2.067,5.349h-5.257l-.942,2.522h7.172l2.4,6.108h3.495Z" fill="#262e3a"/>
    <path id="Path_313" data-name="Path 313" d="M568.871,608.306v5.2h3.039V592.99h-2.978V608.4Z" fill="#262e3a"/>
    <rect id="Rectangle_29" data-name="Rectangle 29" width="2.856" height="20.513" transform="translate(555.379 592.99)" fill="#262e3a"/>
    <path id="Path_314" data-name="Path 314" d="M567.777,606.7l-8.448-12.368v5.227l8.448,12.4Z" fill="#262e3a"/>
    <path id="Path_315" data-name="Path 315" d="M598.47,592.99l-4.042,6.017c-.79,1.185-1.488,2.309-2.1,3.282v-.031l-1.7,2.583V613.5h3.1v-8.661l8.357-11.851Z" fill="#262e3a"/>
    <path id="Path_316" data-name="Path 316" d="M590.417,599.159l-4.1-6.169h-3.768l7.415,10.879,1.732-2.674Z" fill="#262e3a"/>
    <path id="Path_317" data-name="Path 317" d="M412.495,630.166v-6.433h2.036v-1h-5.2v1h2.035v6.433Z" fill="#262e3a"/>
    <path id="Path_318" data-name="Path 318" d="M422.747,622.728l-2.7,7.438h1.193l.572-1.663h2.821l.576,1.663h1.189l-2.7-7.438Zm-.612,4.775,1.077-3.249h.02l1.076,3.249Z" fill="#262e3a"/>
    <path id="Path_319" data-name="Path 319" d="M434.52,624.335a1.418,1.418,0,0,1,.469-.382,1.554,1.554,0,0,1,.684-.159,1.472,1.472,0,0,1,.918.312,1.628,1.628,0,0,1,.5.765h1.194a2.791,2.791,0,0,0-.857-1.566,2.521,2.521,0,0,0-1.754-.638A2.633,2.633,0,0,0,433.341,624a2.064,2.064,0,0,0-.25.709,19.708,19.708,0,0,0,0,3.458,1.98,1.98,0,0,0,.1.4c.044.1.093.209.147.322a2.5,2.5,0,0,0,.868.908,2.648,2.648,0,0,0,4.116-2.214V626.07h-2.642v1.066H437.2v.387a1.56,1.56,0,0,1-.439,1.128,1.439,1.439,0,0,1-1.086.449,1.524,1.524,0,0,1-1.153-.541,1.245,1.245,0,0,1-.291-.627,8.62,8.62,0,0,1-.082-1.485,8.8,8.8,0,0,1,.082-1.494A1.238,1.238,0,0,1,434.52,624.335Z" fill="#262e3a"/>
    <path id="Path_320" data-name="Path 320" d="M445.909,622.729v7.438h4.749V629.1h-3.622v-6.371Z" fill="#262e3a"/>
    <rect id="Rectangle_30" data-name="Rectangle 30" width="1.127" height="7.438" transform="translate(457.988 622.729)" fill="#262e3a"/>
    <path id="Path_321" data-name="Path 321" d="M468.077,624.881h.021l3.362,5.285h1.066v-7.437H471.4v5.285h-.02l-3.367-5.285H466.95v7.438h1.127Z" fill="#262e3a"/>
    <path id="Path_322" data-name="Path 322" d="M485.114,623.794v-1.066h-4.749v7.438h4.749V629.1h-3.622v-2.183h3.091v-1h-3.091v-2.122Z" fill="#262e3a"/>
    <path id="Path_323" data-name="Path 323" d="M501.14,628.569c.044.1.094.209.148.322a2.492,2.492,0,0,0,.867.908,2.648,2.648,0,0,0,4.117-2.214V626.07H503.63v1.066h1.515v.387a1.568,1.568,0,0,1-.439,1.128,1.438,1.438,0,0,1-1.087.449,1.323,1.323,0,0,1-.683-.168,1.34,1.34,0,0,1-.47-.373,1.245,1.245,0,0,1-.291-.627,8.761,8.761,0,0,1-.081-1.485,8.94,8.94,0,0,1,.081-1.494,1.238,1.238,0,0,1,.291-.618,1.432,1.432,0,0,1,.47-.382,1.553,1.553,0,0,1,.683-.159,1.475,1.475,0,0,1,.919.312,1.638,1.638,0,0,1,.5.765h1.193a2.8,2.8,0,0,0-.857-1.566,2.521,2.521,0,0,0-1.755-.638A2.629,2.629,0,0,0,501.288,624a2.044,2.044,0,0,0-.25.709,19.708,19.708,0,0,0,0,3.458A2.054,2.054,0,0,0,501.14,628.569Z" fill="#262e3a"/>
    <path id="Path_324" data-name="Path 324" d="M513.78,628.569c.044.1.093.209.147.322a2.5,2.5,0,0,0,.868.908,2.616,2.616,0,0,0,1.464.428,2.657,2.657,0,0,0,1.479-.428,2.42,2.42,0,0,0,.847-.908,1.713,1.713,0,0,0,.26-.72,22.666,22.666,0,0,0,0-3.458,1.692,1.692,0,0,0-.26-.709,2.489,2.489,0,0,0-.847-.919,2.6,2.6,0,0,0-1.479-.418A2.633,2.633,0,0,0,513.927,624a2.064,2.064,0,0,0-.249.709,19.459,19.459,0,0,0,0,3.458A2.056,2.056,0,0,0,513.78,628.569Zm1.035-3.616a1.238,1.238,0,0,1,.291-.618,1.417,1.417,0,0,1,.469-.382,1.561,1.561,0,0,1,.684-.159,1.637,1.637,0,0,1,.7.159,1.339,1.339,0,0,1,.449.382,1.31,1.31,0,0,1,.3.618,9.48,9.48,0,0,1,.076,1.494,9.291,9.291,0,0,1-.076,1.485,1.316,1.316,0,0,1-.3.627,1.254,1.254,0,0,1-.449.373,1.391,1.391,0,0,1-.7.168,1.524,1.524,0,0,1-1.153-.541,1.245,1.245,0,0,1-.291-.627,8.758,8.758,0,0,1-.081-1.485A8.936,8.936,0,0,1,514.815,624.953Z" fill="#262e3a"/>
    <path id="Path_325" data-name="Path 325" d="M531.245,623.794v-1.066H526.5v7.438h4.749V629.1h-3.622v-2.183h3.091v-1h-3.091v-2.122Z" fill="#262e3a"/>
    <path id="Path_326" data-name="Path 326" d="M540.778,629.1a3.265,3.265,0,0,1-2.112-.74l-.739.847a4.217,4.217,0,0,0,2.841,1.02q2.556-.03,2.612-2.163a2.108,2.108,0,0,0-.495-1.387,2.313,2.313,0,0,0-1.545-.75q-.531-.066-.837-.118a1.424,1.424,0,0,1-.8-.367.819.819,0,0,1-.25-.581.966.966,0,0,1,.372-.806,1.4,1.4,0,0,1,.868-.261,3.408,3.408,0,0,1,1.841.572l.628-.928a4.178,4.178,0,0,0-2.413-.771,2.531,2.531,0,0,0-1.781.6,2.036,2.036,0,0,0-.648,1.571,1.973,1.973,0,0,0,.516,1.378,2.434,2.434,0,0,0,1.459.709l.984.137q.98.169.969,1Q542.228,629.08,540.778,629.1Z" fill="#262e3a"/>
    <path id="Path_327" data-name="Path 327" d="M564.808,630.166v-7.437h-1.127v3.188h-2.944v-3.188H559.61v7.438h1.127v-3.25h2.944v3.25Z" fill="#262e3a"/>
    <path id="Path_328" data-name="Path 328" d="M577.4,623.794v-1.066h-4.749v7.438H577.4V629.1h-3.622v-2.183h3.091v-1h-3.091v-2.122Z" fill="#262e3a"/>
    <path id="Path_329" data-name="Path 329" d="M589.883,624.8a1.98,1.98,0,0,0-.739-1.587,2.289,2.289,0,0,0-1.515-.49h-2.9v7.438h1.127v-3.178h1.439l1.535,3.178h1.342l-1.725-3.3A2.068,2.068,0,0,0,589.883,624.8Zm-1.377.816a1.23,1.23,0,0,1-.949.367h-1.7v-2.255h1.765a1.29,1.29,0,0,1,.826.23.987.987,0,0,1,.373.842A1.149,1.149,0,0,1,588.506,625.621Z" fill="#262e3a"/>
    <path id="Path_330" data-name="Path 330" d="M602.115,623.794v-1.066h-4.749v7.438h4.749V629.1h-3.622v-2.183h3.091v-1h-3.091v-2.122Z" fill="#262e3a"/>
  </g>
</svg>
